<svg width="15" height="20" viewBox="0 0 15 20" fill="none" xmlns="http://www.w3.org/2000/svg">
  <path fill-rule="evenodd" clip-rule="evenodd" d="M7.45153 9.60943C7.8778 9.60943 8.27361 9.50286 8.63898 9.28973C9.00436 9.0766 9.29361 8.79115 9.50674 8.43339C9.71988 8.07563 9.82644 7.68363 9.82644 7.25736C9.82644 6.83109 9.71988 6.43528 9.50674 6.06991C9.29361 5.70453 9.00436 5.41528 8.63898 5.20215C8.27361 4.98902 7.8778 4.88245 7.45153 4.88245C7.02526 4.88245 6.63325 4.98902 6.27549 5.20215C5.91773 5.41528 5.63228 5.70453 5.41915 6.06991C5.20601 6.43528 5.09945 6.83109 5.09945 7.25736C5.09945 7.91198 5.3278 8.46765 5.78452 8.92436C6.24124 9.38108 6.7969 9.60943 7.45153 9.60943ZM7.45154 0.612181C8.66946 0.612181 9.7884 0.909042 10.8084 1.50277C11.8132 2.09651 12.6124 2.89575 13.2062 3.90052C13.7999 4.92052 14.0968 6.03946 14.0968 7.25737C14.0968 8.18603 13.8684 9.25169 13.4117 10.4544C13.0159 11.4744 12.4678 12.5781 11.7675 13.7656C11.189 14.7094 10.5268 15.6914 9.78079 16.7114C9.26318 17.4269 8.71513 18.1272 8.13662 18.8122L7.45154 19.6115L6.76647 18.8122C6.18796 18.1272 5.63991 17.4269 5.12229 16.7114C4.37632 15.6914 3.71409 14.7094 3.13558 13.7656C2.43528 12.5781 1.88723 11.4744 1.49141 10.4544C1.03469 9.25169 0.806335 8.18603 0.806335 7.25737C0.806335 6.03946 1.1032 4.92052 1.69693 3.90052C2.29066 2.89575 3.08991 2.09651 4.09469 1.50277C5.11469 0.909042 6.23363 0.612181 7.45154 0.612181Z" fill="white"/>
</svg>
